<?xml version="1.0" standalone="no"?>
<!DOCTYPE svg PUBLIC "-//W3C//DTD SVG 20010904//EN"
 "http://www.w3.org/TR/2001/REC-SVG-20010904/DTD/svg10.dtd">
<svg version="1.0" xmlns="http://www.w3.org/2000/svg"
 width="260.000000pt" height="260.000000pt" viewBox="0 0 260.000000 260.000000"
 preserveAspectRatio="xMidYMid meet">
<metadata>
Created by potrace 1.14, written by Peter Selinger 2001-2017
</metadata>
<g transform="translate(0.000000,260.000000) scale(0.100000,-0.100000)"
fill="#000000" stroke="none">
<path d="M1648 2211 c-25 -16 -68 -57 -95 -91 -41 -52 -52 -60 -73 -55 -107
22 -143 26 -196 21 -34 -4 -82 -12 -107 -20 l-44 -13 -63 70 c-75 82 -112 107
-162 107 -78 0 -109 -85 -113 -320 -3 -150 -6 -171 -29 -227 -67 -161 -52
-296 41 -385 28 -27 29 -30 21 -95 -4 -38 -12 -88 -17 -113 -6 -25 -10 -77
-11 -117 l0 -72 -51 -48 -52 -48 -68 4 c-67 3 -70 2 -103 -31 -59 -59 -60
-154 -3 -249 22 -37 46 -62 77 -79 43 -24 54 -25 223 -28 178 -4 179 -4 225
-33 27 -17 60 -29 79 -29 40 0 93 21 112 43 10 13 31 17 87 17 64 0 76 -3 100
-25 49 -45 130 -45 190 0 32 24 37 25 195 25 190 0 228 9 285 65 90 90 99 240
18 304 -25 20 -38 22 -94 19 l-65 -4 -43 43 c-24 24 -48 43 -53 43 -5 0 -9 39
-9 88 0 48 -7 111 -14 140 -26 98 -23 151 12 206 17 27 37 65 43 84 17 50 5
164 -25 252 -22 67 -25 95 -29 255 -5 201 -19 269 -64 304 -35 29 -71 26 -125
-8z m111 -27 c33 -41 42 -89 47 -244 l5 -145 -20 24 c-19 20 -21 36 -21 136 0
133 -11 175 -46 175 -29 0 -67 -38 -95 -93 l-19 -37 -41 20 -40 21 30 37 c36
46 99 106 126 120 32 18 52 14 74 -14z m-792 -5 c19 -12 57 -48 84 -81 l50
-60 -31 -19 c-17 -11 -34 -19 -39 -19 -4 0 -22 22 -39 49 -34 55 -71 85 -95
75 -25 -9 -38 -75 -36 -184 1 -73 -2 -103 -13 -119 -15 -21 -16 -20 -22 26 -8
66 10 253 29 299 25 60 54 69 112 33z m439 -130 c246 -44 459 -306 459 -565 0
-76 -2 -84 -35 -132 -19 -29 -56 -68 -82 -87 -109 -84 -306 -155 -427 -155
-198 0 -476 141 -540 273 -30 61 -28 170 3 258 57 163 210 324 360 381 97 37
166 44 262 27z m-262 -1021 c9 -45 16 -108 12 -108 -10 0 -56 90 -56 109 0 30
38 28 44 -1z m406 -4 c0 -14 -11 -42 -25 -62 l-25 -37 0 43 c0 24 5 52 10 63
15 28 40 24 40 -7z m-727 -196 c8 -18 25 -46 39 -63 14 -16 28 -46 32 -65 l6
-34 -39 38 c-41 40 -87 129 -76 146 11 18 25 10 38 -22z m1043 18 c8 -21 -39
-106 -81 -146 l-36 -35 6 30 c4 17 16 41 26 55 11 14 29 44 41 68 23 44 35 52
44 28z"/>
<path d="M1579 1665 c-19 -14 -46 -30 -60 -37 -20 -9 -25 -16 -19 -27 5 -9 11
-28 14 -43 8 -35 32 -58 61 -58 50 0 75 90 36 129 -17 17 -17 20 -3 35 27 27
7 28 -29 1z m-16 -82 c9 -9 -13 -34 -24 -27 -14 8 -11 34 4 34 8 0 17 -3 20
-7z"/>
<path d="M1038 1668 c8 -8 6 -17 -8 -36 -40 -51 -17 -132 38 -132 35 0 75 60
58 88 -3 5 4 13 17 16 l22 7 -24 10 c-13 5 -37 20 -53 34 -30 25 -74 37 -50
13z m51 -105 c-15 -18 -34 -1 -25 22 5 14 9 15 21 5 12 -10 13 -16 4 -27z"/>
<path d="M1262 1548 c-35 -17 -26 -58 16 -80 l34 -16 -31 -16 c-38 -20 -77
-12 -98 20 -17 27 -33 31 -33 9 0 -8 16 -27 35 -42 19 -15 35 -37 35 -48 0
-30 37 -84 63 -94 55 -21 98 9 117 81 7 25 21 42 45 57 19 11 35 27 35 36 0
19 -16 20 -27 1 -11 -17 -47 -36 -71 -36 -11 0 -30 8 -43 18 l-22 19 30 11
c18 6 34 20 38 33 15 46 -63 75 -123 47z"/>
</g>
</svg>
